# xmcd
#
# Track frame offsets:
#	150
#	19303
#	62702
#	80106
#	104970
#	138203
#	159262
#	199367
#
# Disc length: 2892 seconds
#
# Revision: 3
# Processed by: cddbd v1.5.1PL2 Copyright (c) Steve Scherf et al.
# Submitted via: dBpowerAMP V4.0
#
DISCID=720b4a08
DTITLE=The O'Jays - Ship Ahoy
DYEAR=1973
DGENRE=R&B
TTITLE0=Put Your Hands Together
TTITLE1=Ship Ahoy
TTITLE2=This Air I Breathe
TTITLE3=You Got Your Hooks In Me
TTITLE4=For The Love Of Money
TTITLE5=Now That We Found Love
TTITLE6=Don't Call Me Brother
TTITLE7=People Keep Tellin' Me
EXTD=
EXTT0=
EXTT1=
EXTT2=
EXTT3=
EXTT4=
EXTT5=
EXTT6=
EXTT7=
PLAYORDER=
